<?xml version="1.0" encoding="utf-8"?><svg xml:space="preserve" viewBox="0 0 100 100" y="0px" x="0px" xmlns:xlink="http://www.w3.org/1999/xlink" xmlns="http://www.w3.org/2000/svg" id="圖層_1" version="1.1" width="200px" height="200px" style="width:100%;height:100%;background-size:initial;background-repeat-y:initial;background-repeat-x:initial;background-position-y:initial;background-position-x:initial;background-origin:initial;background-image:initial;background-color:rgb(255, 255, 255);background-clip:initial;background-attachment:initial;animation-play-state:paused" ><g class="ldl-scale" style="transform-origin:50% 50%;transform:rotate(0deg) scale(0.8, 0.8);animation-play-state:paused" ><g style="animation-play-state:paused" ><circle r="15" cy="28.5" cx="51" stroke-miterlimit="10" stroke-linejoin="round" stroke-linecap="round" stroke-width="3.5" stroke="#333435" fill="#F47E5F" style="stroke:rgb(51, 52, 53);fill:rgb(244, 126, 95);animation-play-state:paused" ></circle>
<path d="M42.75,24.25c0.86-1.91,2.45-3.42,4.41-4.17" stroke-miterlimit="10" stroke-linejoin="round" stroke-linecap="round" stroke-width="3.5" stroke="#FFFFFF" fill="none" style="stroke:rgb(255, 255, 255);animation-play-state:paused" ></path>
<circle r="5.29" cy="31.15" cx="51.88" fill="#C33837" style="fill:rgb(195, 56, 55);animation-play-state:paused" ></circle>
<path d="M60.59,16.97c0.07,0.6,0.11,1.2,0.11,1.82c0,8.77-7.11,15.88-15.88,15.88c-3.05,0-5.9-0.88-8.32-2.37 C38.19,38.74,44.03,43.5,51,43.5c8.28,0,15-6.72,15-15C66,23.87,63.9,19.72,60.59,16.97z" stroke-miterlimit="10" stroke-linejoin="round" stroke-linecap="round" stroke-width="3.5" stroke="#000000" opacity="0.1" style="animation-play-state:paused" ></path></g>
<g style="animation-play-state:paused" ><circle r="15" cy="49.5" cx="38" stroke-miterlimit="10" stroke-linejoin="round" stroke-linecap="round" stroke-width="3.5" stroke="#333435" fill="#F47E5F" style="stroke:rgb(51, 52, 53);fill:rgb(244, 126, 95);animation-play-state:paused" ></circle>
<path d="M29.75,45.25c0.86-1.91,2.45-3.42,4.41-4.17" stroke-miterlimit="10" stroke-linejoin="round" stroke-linecap="round" stroke-width="3.5" stroke="#FFFFFF" fill="none" style="stroke:rgb(255, 255, 255);animation-play-state:paused" ></path>
<circle r="5.29" cy="52.15" cx="38.88" fill="#C33837" style="fill:rgb(195, 56, 55);animation-play-state:paused" ></circle>
<path d="M47.59,37.97c0.07,0.6,0.11,1.2,0.11,1.82c0,8.77-7.11,15.88-15.88,15.88c-3.05,0-5.9-0.88-8.32-2.37 C25.19,59.74,31.03,64.5,38,64.5c8.28,0,15-6.72,15-15C53,44.87,50.9,40.72,47.59,37.97z" stroke-miterlimit="10" stroke-linejoin="round" stroke-linecap="round" stroke-width="3.5" stroke="#000000" opacity="0.1" style="animation-play-state:paused" ></path></g>
<g style="animation-play-state:paused" ><circle r="15" cy="69.5" cx="25" stroke-miterlimit="10" stroke-linejoin="round" stroke-linecap="round" stroke-width="3.5" stroke="#333435" fill="#F47E5F" style="stroke:rgb(51, 52, 53);fill:rgb(244, 126, 95);animation-play-state:paused" ></circle>
<path d="M16.75,65.25c0.86-1.91,2.45-3.42,4.41-4.17" stroke-miterlimit="10" stroke-linejoin="round" stroke-linecap="round" stroke-width="3.5" stroke="#FFFFFF" fill="none" style="stroke:rgb(255, 255, 255);animation-play-state:paused" ></path>
<circle r="5.29" cy="72.15" cx="25.88" fill="#C33837" style="fill:rgb(195, 56, 55);animation-play-state:paused" ></circle>
<path d="M34.59,57.97c0.07,0.6,0.11,1.2,0.11,1.82c0,8.77-7.11,15.88-15.88,15.88c-3.05,0-5.9-0.88-8.32-2.37 C12.19,79.74,18.03,84.5,25,84.5c8.28,0,15-6.72,15-15C40,64.87,37.9,60.72,34.59,57.97z" stroke-miterlimit="10" stroke-linejoin="round" stroke-linecap="round" stroke-width="3.5" stroke="#000000" opacity="0.1" style="animation-play-state:paused" ></path></g>
<g style="animation-play-state:paused" ><circle r="15" cy="50.5" cx="63" stroke-miterlimit="10" stroke-linejoin="round" stroke-linecap="round" stroke-width="3.5" stroke="#333435" fill="#F47E5F" style="stroke:rgb(51, 52, 53);fill:rgb(244, 126, 95);animation-play-state:paused" ></circle>
<path d="M54.75,46.25c0.86-1.91,2.45-3.42,4.41-4.17" stroke-miterlimit="10" stroke-linejoin="round" stroke-linecap="round" stroke-width="3.5" stroke="#FFFFFF" fill="none" style="stroke:rgb(255, 255, 255);animation-play-state:paused" ></path>
<circle r="5.29" cy="53.15" cx="63.88" fill="#C33837" style="fill:rgb(195, 56, 55);animation-play-state:paused" ></circle>
<path d="M72.59,38.97c0.07,0.6,0.11,1.2,0.11,1.82c0,8.77-7.11,15.88-15.88,15.88c-3.05,0-5.9-0.88-8.32-2.37 C50.19,60.74,56.03,65.5,63,65.5c8.28,0,15-6.72,15-15C78,45.87,75.9,41.72,72.59,38.97z" stroke-miterlimit="10" stroke-linejoin="round" stroke-linecap="round" stroke-width="3.5" stroke="#000000" opacity="0.1" style="animation-play-state:paused" ></path></g>
<g style="animation-play-state:paused" ><circle r="15" cy="70.5" cx="50" stroke-miterlimit="10" stroke-linejoin="round" stroke-linecap="round" stroke-width="3.5" stroke="#333435" fill="#F47E5F" style="stroke:rgb(51, 52, 53);fill:rgb(244, 126, 95);animation-play-state:paused" ></circle>
<path d="M41.75,66.25c0.86-1.91,2.45-3.42,4.41-4.17" stroke-miterlimit="10" stroke-linejoin="round" stroke-linecap="round" stroke-width="3.5" stroke="#FFFFFF" fill="none" style="stroke:rgb(255, 255, 255);animation-play-state:paused" ></path>
<circle r="5.29" cy="73.15" cx="50.88" fill="#C33837" style="fill:rgb(195, 56, 55);animation-play-state:paused" ></circle>
<path d="M59.59,58.97c0.07,0.6,0.11,1.2,0.11,1.82c0,8.77-7.11,15.88-15.88,15.88c-3.05,0-5.9-0.88-8.32-2.37 C37.19,80.74,43.03,85.5,50,85.5c8.28,0,15-6.72,15-15C65,65.87,62.9,61.72,59.59,58.97z" stroke-miterlimit="10" stroke-linejoin="round" stroke-linecap="round" stroke-width="3.5" stroke="#000000" opacity="0.1" style="animation-play-state:paused" ></path></g>
<g style="animation-play-state:paused" ><circle r="15" cy="71.5" cx="75" stroke-miterlimit="10" stroke-linejoin="round" stroke-linecap="round" stroke-width="3.5" stroke="#333435" fill="#F47E5F" style="stroke:rgb(51, 52, 53);fill:rgb(244, 126, 95);animation-play-state:paused" ></circle>
<path d="M66.75,67.25c0.86-1.91,2.45-3.42,4.41-4.17" stroke-miterlimit="10" stroke-linejoin="round" stroke-linecap="round" stroke-width="3.5" stroke="#FFFFFF" fill="none" style="stroke:rgb(255, 255, 255);animation-play-state:paused" ></path>
<circle r="5.29" cy="74.15" cx="75.88" fill="#C33837" style="fill:rgb(195, 56, 55);animation-play-state:paused" ></circle>
<path d="M84.59,59.97c0.07,0.6,0.11,1.2,0.11,1.82c0,8.77-7.11,15.88-15.88,15.88c-3.05,0-5.9-0.88-8.32-2.37 C62.19,81.74,68.03,86.5,75,86.5c8.28,0,15-6.72,15-15C90,66.87,87.9,62.72,84.59,59.97z" stroke-miterlimit="10" stroke-linejoin="round" stroke-linecap="round" stroke-width="3.5" stroke="#000000" opacity="0.1" style="animation-play-state:paused" ></path></g>
<metadata xmlns:d="https://loading.io/stock/" style="animation-play-state:paused" ><d:name style="animation-play-state:paused" >sushi</d:name>


<d:tags style="animation-play-state:paused" >sushi,salmon,japanese food,roe,sea food</d:tags>


<d:license style="animation-play-state:paused" >by</d:license>


<d:slug style="animation-play-state:paused" >xqvsay</d:slug></metadata></g><!-- generated by https://loading.io/ --></svg>